{"title":"Imagine.Me.And.You.2005.DVDRiP.XViD.AC3.Optional.NORDIC.Zen_Bud","uid":5802787,"size":1487376904,"categoryP":"video","categoryS":"movies","magnet":"?xt=urn:btih:d1e73269ecc8eb8b7e9536cca427572eb33b8de7&amp;dn=Imagine.Me.And.You.2005.DVDRiP.XViD.AC3.Optional.NORDIC.Zen_Bud&amp;tr=udp%3A%2F%2Ftracker.openbittorrent.com%3A80&amp;tr=udp%3A%2F%2Fopen.demonii.com%3A1337&amp;tr=udp%3A%2F%2Ftracker.coppersurfer.tk%3A6969&amp;tr=udp%3A%2F%2Fexodus.desync.com%3A6969","seeders":0,"leechers":0,"uploader":"Zen_Bud","files":-1,"time":1283328281,"description":"\nComplete name                    : Imagine.Me.And.You.avi\nFormat                           : AVI\nFile size                        : 1.37 GiB\nDuration                         : 1h 29mn\nOverall bit rate                 : 2 182 Kbps\n\nVideo\n\nFormat                           : MPEG-4 Visual\nCodec ID/Hint                    : XviD\nDuration                         : 1h 29mn\nBit rate                         : 1 723 Kbps\nWidth                            : 720 pixels\nHeight                           : 436 pixels\nDisplay aspect ratio             : 2.35:1\nStream size                      : 1.08 GiB (79%)\nWriting library                  : XviD 1.1.2 (UTC 2006-11-01)\n\nAudio\nID                               : 1\nFormat                           : AC-3\nDuration                         : 1h 29mn\nBit rate                         : 448 Kbps\nChannel(s)                       : 6 channels\nChannel positions                : Front: L C R, Side: L R, LFE\nSampling rate                    : 48.0 KHz\nBit depth                        : 16 bits\nStream size                      : 288 MiB (21%)\n\n\nText #1\nLanguage                         : Danish\n\nText #2\nLanguage                         : Finnish\n\nText #3\nLanguage                         : Norwegian\n\nText #4\nLanguage                         : Swedish","torrent":{"xt":"urn:btih:d1e73269ecc8eb8b7e9536cca427572eb33b8de7","amp;dn":"Imagine.Me.And.You.2005.DVDRiP.XViD.AC3.Optional.NORDIC.Zen_Bud","amp;tr":["udp%3A%2F%2Ftracker.openbittorrent.com%3A80","udp%3A%2F%2Fopen.demonii.com%3A1337","udp%3A%2F%2Ftracker.coppersurfer.tk%3A6969","udp%3A%2F%2Fexodus.desync.com%3A6969"],"infoHash":"d1e73269ecc8eb8b7e9536cca427572eb33b8de7","infoHashBuffer":{"type":"Buffer","data":[209,231,50,105,236,200,235,139,126,149,54,204,164,39,87,46,179,59,141,231]},"announce":[],"urlList":[]}}